<svg width="178" height="98" viewBox="0 0 178 98" fill="none" xmlns="http://www.w3.org/2000/svg">
<g filter="url(#filter0_d)">
<rect x="4.5" y="0.5" width="169" height="89" rx="3.5" stroke="#AFB1B8"/>
<path d="M89.7404 43.3533C89.3224 42.7432 89.1225 42.022 89.1699 41.2962V38.3135C89.1699 37.3992 89.359 36.7044 89.7372 36.2291C90.1154 35.7537 90.7649 35.517 91.6858 35.5191C92.5512 35.5191 93.1654 35.7213 93.5287 36.1259C93.9249 36.6421 94.1176 37.2733 94.0735 37.91V38.6109H92.5255V37.9009C92.531 37.6685 92.516 37.4361 92.4807 37.2061C92.4584 37.0488 92.3804 36.9033 92.2595 36.7934C92.1006 36.675 91.9003 36.6175 91.6987 36.6326C91.4866 36.6176 91.2762 36.6782 91.1089 36.8025C90.9741 36.9243 90.8842 37.0838 90.8525 37.2576C90.8081 37.5011 90.7878 37.7479 90.7916 37.995V41.6147C90.7672 41.964 90.8355 42.3134 90.9904 42.6312C91.0673 42.7387 91.1743 42.824 91.2993 42.8775C91.4243 42.9311 91.5625 42.9508 91.6987 42.9346C91.897 42.9501 92.0937 42.8912 92.2467 42.7708C92.3728 42.6523 92.454 42.4976 92.4775 42.3308C92.5136 42.0907 92.5297 41.8482 92.5255 41.6056V40.8714H94.0735V41.5419C94.117 42.2056 93.9289 42.8644 93.5383 43.4171C93.1825 43.86 92.5768 44.0815 91.6858 44.0815C90.7949 44.0815 90.1218 43.8449 89.7404 43.3533Z" fill="#AFB1B8"/>
<path d="M96.1856 43.3837C95.7946 42.9194 95.5991 42.2428 95.5991 41.3477V38.2104C95.5991 37.3244 95.7946 36.6538 96.1856 36.1987C96.5766 35.7436 97.2304 35.517 98.147 35.5191C99.0572 35.5191 99.7078 35.7456 100.099 36.1987C100.49 36.6538 100.688 37.3244 100.688 38.2104V41.3477C100.688 42.2337 100.49 42.9134 100.092 43.3806C99.695 43.8479 99.0476 44.0815 98.147 44.0815C97.2464 44.0815 96.5798 43.8449 96.1856 43.3837ZM98.8681 42.6312C99.0081 42.3404 99.0719 42.0219 99.054 41.7027V37.8615C99.072 37.5485 99.0093 37.2361 98.8713 36.9512C98.7928 36.8414 98.6832 36.7547 98.5551 36.7011C98.4271 36.6474 98.2856 36.629 98.147 36.6478C98.0079 36.6294 97.8662 36.6481 97.7377 36.7017C97.6093 36.7553 97.4991 36.8417 97.4195 36.9512C97.2786 37.2353 97.2147 37.5481 97.2336 37.8615V41.7209C97.2141 42.0402 97.278 42.3591 97.4195 42.6494C97.5097 42.7473 97.6211 42.8257 97.746 42.8795C97.8709 42.9332 98.0066 42.961 98.1438 42.961C98.281 42.961 98.4167 42.9332 98.5416 42.8795C98.6665 42.8257 98.7779 42.7473 98.8681 42.6494V42.6312Z" fill="#AFB1B8"/>
<path d="M102.551 35.6106H104.217L105.47 41.3992L106.752 35.6106H108.374L108.537 43.9658H107.339L107.211 38.159L105.973 43.9658H105.012L103.73 38.1378L103.611 43.9658H102.4L102.551 35.6106Z" fill="#AFB1B8"/>
<path d="M110.406 35.6106H113.002C114.498 35.6106 115.245 36.4014 115.245 37.9831C115.245 39.498 114.458 40.2544 112.883 40.2524H111.999V43.9658H110.396L110.406 35.6106ZM112.624 39.1814C112.782 39.2005 112.943 39.1867 113.095 39.1411C113.247 39.0956 113.387 39.0193 113.505 38.9175C113.689 38.6353 113.77 38.3039 113.736 37.974C113.744 37.7191 113.719 37.4642 113.659 37.2155C113.636 37.1324 113.596 37.0545 113.541 36.9863C113.486 36.918 113.417 36.8608 113.339 36.8181C113.116 36.7171 112.87 36.6711 112.624 36.6846H112.002V39.1814H112.624Z" fill="#AFB1B8"/>
<path d="M117.556 35.6106H119.277L121.043 43.9658H119.549L119.2 42.0393H117.665L117.306 43.9658H115.79L117.556 35.6106ZM119.027 41.0715L118.428 37.5644L117.828 41.0715H119.027Z" fill="#AFB1B8"/>
<path d="M122.469 35.6106H123.591L125.738 40.3768V35.6106H127.068V43.9658H126.001L123.841 38.9903V43.9658H122.466L122.469 35.6106Z" fill="#AFB1B8"/>
<path d="M130.184 40.7801L128.398 35.6223H129.902L130.991 38.9354L132.014 35.6223H133.485L131.722 40.7801V43.9658H130.184V40.7801Z" fill="#AFB1B8"/>
<path d="M92.2146 47.6189V48.0558H90.907V51.4509H90.3589V48.0558H89.0449V47.6189H92.2146Z" fill="#AFB1B8"/>
<path d="M96.3141 51.4512H95.891C95.8481 51.4537 95.8057 51.4407 95.7724 51.4148C95.7404 51.3925 95.7159 51.362 95.7019 51.3268L95.3238 50.4166H93.5097L93.1316 51.3268C93.1208 51.3649 93.1011 51.4001 93.0739 51.43C93.0403 51.4554 92.9982 51.4683 92.9553 51.4664H92.5322L94.1347 47.6345H94.6924L96.3141 51.4512ZM93.6604 50.0283H95.1731L94.5321 48.4688C94.4848 48.3509 94.4452 48.2303 94.4135 48.1078C94.3911 48.1806 94.3719 48.2504 94.3526 48.3111L94.295 48.4719L93.6604 50.0283Z" fill="#AFB1B8"/>
<path d="M99.0766 51.0748C99.177 51.0798 99.2775 51.0798 99.3779 51.0748C99.4645 51.0664 99.5503 51.0512 99.6343 51.0293C99.7128 51.0111 99.7899 50.9878 99.865 50.9595C99.9356 50.9322 100.006 50.8988 100.08 50.8655V50.0037H99.4388C99.4229 50.0046 99.4071 50.0023 99.3922 49.9971C99.3773 49.9919 99.3637 49.9838 99.3523 49.9734C99.3417 49.9648 99.3334 49.954 99.3279 49.9419C99.3223 49.9299 99.3197 49.9167 99.3202 49.9036V49.6093H100.564V51.0779C100.462 51.1466 100.355 51.2075 100.243 51.2599C100.129 51.3133 100.01 51.357 99.8875 51.3904C99.7564 51.4269 99.6224 51.4533 99.4869 51.4693C99.3315 51.4856 99.1753 51.4937 99.0189 51.4936C98.7425 51.4958 98.4683 51.4473 98.2113 51.351C97.9714 51.2596 97.7534 51.1234 97.5703 50.9504C97.3919 50.7757 97.2514 50.5695 97.1569 50.3436C97.0559 50.0896 97.0059 49.8199 97.0095 49.5486C97.0061 49.2755 97.055 49.0041 97.1537 48.7475C97.2459 48.5204 97.3866 48.3138 97.5671 48.1406C97.75 47.9682 97.9681 47.833 98.2081 47.7431C98.4825 47.6454 98.7738 47.597 99.067 47.6005C99.2162 47.6003 99.3652 47.6115 99.5125 47.6339C99.6428 47.654 99.7706 47.6865 99.8939 47.731C100.006 47.7709 100.113 47.8217 100.214 47.8827C100.313 47.9426 100.406 48.0095 100.493 48.083L100.339 48.3197C100.327 48.3413 100.309 48.3594 100.287 48.3722C100.265 48.3851 100.24 48.392 100.214 48.3925C100.179 48.3914 100.144 48.3809 100.115 48.3621C100.067 48.3379 100.016 48.3075 99.958 48.2711C99.8898 48.2307 99.818 48.1961 99.7433 48.1679C99.6477 48.1317 99.5491 48.1032 99.4484 48.083C99.3142 48.0596 99.1779 48.0484 99.0414 48.0496C98.8299 48.0474 98.62 48.0834 98.4228 48.1558C98.2445 48.2235 98.0838 48.3271 97.9517 48.4592C97.8189 48.597 97.7174 48.7592 97.6536 48.9356C97.5105 49.3507 97.5105 49.7981 97.6536 50.2131C97.7238 50.3933 97.833 50.5576 97.9741 50.6955C98.1056 50.827 98.2651 50.9304 98.4421 50.999C98.6458 51.0652 98.8619 51.091 99.0766 51.0748Z" fill="#AFB1B8"/>
<path d="M104.185 51.014H105.935V51.4509H103.65V47.6189H104.198L104.185 51.014Z" fill="#AFB1B8"/>
<path d="M107.756 51.4509H107.208V47.6189H107.756V51.4509Z" fill="#AFB1B8"/>
<path d="M109.794 47.6371C109.826 47.6547 109.855 47.6785 109.877 47.7069L112.22 50.5955C112.217 50.5501 112.217 50.5045 112.22 50.459C112.22 50.4165 112.22 50.374 112.22 50.3346V47.6038H112.698V51.4512H112.422C112.381 51.4543 112.34 51.447 112.303 51.43C112.27 51.4109 112.241 51.3862 112.217 51.3571L109.877 48.4716C109.877 48.5171 109.877 48.5595 109.877 48.602C109.877 48.6445 109.877 48.684 109.877 48.7204V51.4512H109.419V47.6189H109.704C109.735 47.619 109.766 47.6252 109.794 47.6371Z" fill="#AFB1B8"/>
<path d="M116.732 47.6189V48.0406H114.79V49.3059H116.364V49.7124H114.79V51.0202H116.732V51.4419H114.226V47.6189H116.732Z" fill="#AFB1B8"/>
<path d="M59.3035 23.9539L83.6385 30.4953V53.4173L59.3035 46.879V23.9539ZM57.7427 22V47.9925L85.196 55.3743V29.3848L57.7427 22Z" fill="#AFB1B8"/>
<path d="M72.4565 67.4402L45 60.0522V34.0625L72.4565 41.4474V67.4402Z" fill="#AFB1B8"/>
<path d="M58.1978 23.6596L82.2155 30.1189L72.0014 39.7912L47.9806 33.3288L58.1978 23.6596ZM57.7427 22L45 34.0631L72.4565 41.4478L85.196 29.3847L57.7427 22Z" fill="#AFB1B8"/>
<path d="M74.0015 65.978L85.1962 55.3774L74.0015 52.3647V65.978Z" fill="#AFB1B8"/>
</g>
<defs>
<filter id="filter0_d" x="0" y="0" width="178" height="98" filterUnits="userSpaceOnUse" color-interpolation-filters="sRGB">
<feFlood flood-opacity="0" result="BackgroundImageFix"/>
<feColorMatrix in="SourceAlpha" type="matrix" values="0 0 0 0 0 0 0 0 0 0 0 0 0 0 0 0 0 0 127 0"/>
<feOffset dy="4"/>
<feGaussianBlur stdDeviation="2"/>
<feColorMatrix type="matrix" values="0 0 0 0 0 0 0 0 0 0 0 0 0 0 0 0 0 0 0.25 0"/>
<feBlend mode="normal" in2="BackgroundImageFix" result="effect1_dropShadow"/>
<feBlend mode="normal" in="SourceGraphic" in2="effect1_dropShadow" result="shape"/>
</filter>
</defs>
</svg>
